<svg width="55" height="36" viewBox="0 0 55 36" fill="none" xmlns="http://www.w3.org/2000/svg">
<g clip-path="url(#clip0_7165_2)">
<path fill-rule="evenodd" clip-rule="evenodd" d="M26.1634 19.0752C23.7886 19.0864 21.5067 18.1538 19.8195 16.4825C18.1323 14.8113 17.1781 12.5382 17.1669 10.1634C17.1557 7.78864 18.0882 5.50669 19.7595 3.81951C21.4308 2.13233 23.7038 1.17818 26.0786 1.16693L26.0733 0.0476818C23.4017 0.0603288 20.8445 1.13374 18.9644 3.03184C17.0842 4.92984 16.035 7.49713 16.0476 10.1687C16.0603 12.8403 17.1337 15.3975 19.0318 17.2777C20.9298 19.1579 23.497 20.2071 26.1687 20.1944L26.1634 19.0752ZM27.6917 16.8121C27.6908 16.6285 27.6538 16.4362 27.6227 16.2967C27.5876 16.1388 27.5406 15.9664 27.4893 15.796C27.3871 15.4558 27.2555 15.083 27.1325 14.783C26.5399 13.3377 25.5943 12.0742 24.3885 11.1121L36.199 11.0562L36.1898 9.09746L24.3699 9.15341C25.571 8.179 26.508 6.90373 27.0883 5.44917C27.2085 5.14801 27.3365 4.77397 27.4355 4.43287C27.4851 4.26193 27.5305 4.08906 27.5642 3.93095C27.594 3.79108 27.6291 3.59846 27.6283 3.41493L25.6696 3.4242L25.6696 3.41191C25.6697 3.40888 25.6697 3.40687 25.6696 3.40687C25.6695 3.40687 25.6692 3.40873 25.6687 3.41257C25.6668 3.42532 25.6618 3.46025 25.6485 3.52297C25.6277 3.62033 25.5957 3.74474 25.5545 3.88672C25.4719 4.17128 25.3641 4.48503 25.269 4.72337C24.7438 6.03975 23.8507 7.16321 22.7063 7.95432C21.5621 8.74517 20.2171 9.16934 18.8411 9.17585L18.8412 9.17958L18.8504 11.1346L18.8504 11.1383L19.0762 11.1372C20.3735 11.1743 21.6384 11.5821 22.727 12.3195C23.8788 13.0997 24.7825 14.2146 25.3202 15.526C25.4175 15.7634 25.5282 16.0761 25.6136 16.3599C25.6561 16.5014 25.6893 16.6256 25.7109 16.7227C25.7249 16.7853 25.7302 16.8202 25.7322 16.8329C25.7328 16.8368 25.7331 16.8386 25.7332 16.8386C25.7333 16.8386 25.7332 16.837 25.7332 16.834L25.733 16.8213L27.6917 16.8121Z" fill="black"/>
</g>
<path d="M1.69473 32V20.015H3.10573V30.776H9.15773V32H1.69473ZM14.2244 32.153C13.4084 32.153 12.6944 31.9773 12.0824 31.626C11.4817 31.2633 11.0171 30.7533 10.6884 30.096C10.3597 29.4273 10.1954 28.6397 10.1954 27.733C10.1954 26.815 10.3597 26.0273 10.6884 25.37C11.0171 24.7127 11.4817 24.2083 12.0824 23.857C12.6944 23.4943 13.4084 23.313 14.2244 23.313C15.0517 23.313 15.7657 23.4943 16.3664 23.857C16.9784 24.2083 17.4487 24.7127 17.7774 25.37C18.1174 26.0273 18.2874 26.815 18.2874 27.733C18.2874 28.6397 18.1174 29.4273 17.7774 30.096C17.4487 30.7533 16.9784 31.2633 16.3664 31.626C15.7657 31.9773 15.0517 32.153 14.2244 32.153ZM14.2244 31.031C15.0404 31.031 15.6864 30.7533 16.1624 30.198C16.6384 29.6313 16.8764 28.8097 16.8764 27.733C16.8764 26.645 16.6327 25.8233 16.1454 25.268C15.6694 24.7013 15.0291 24.418 14.2244 24.418C13.4197 24.418 12.7794 24.7013 12.3034 25.268C11.8274 25.8233 11.5894 26.645 11.5894 27.733C11.5894 28.8097 11.8274 29.6313 12.3034 30.198C12.7794 30.7533 13.4197 31.031 14.2244 31.031ZM24.1913 35.791C23.4546 35.791 22.7746 35.7003 22.1513 35.519C21.528 35.3377 20.967 35.06 20.4683 34.686L20.8763 33.649C21.2276 33.8983 21.5733 34.0967 21.9133 34.244C22.2533 34.3913 22.6046 34.499 22.9673 34.567C23.33 34.6463 23.7153 34.686 24.1233 34.686C24.962 34.686 25.5966 34.465 26.0273 34.023C26.458 33.581 26.6733 32.952 26.6733 32.136V29.637H26.8433C26.662 30.3057 26.288 30.8383 25.7213 31.235C25.1546 31.6203 24.4916 31.813 23.7323 31.813C22.9503 31.813 22.2703 31.643 21.6923 31.303C21.1256 30.9517 20.6836 30.4587 20.3663 29.824C20.0603 29.178 19.9073 28.4187 19.9073 27.546C19.9073 26.6847 20.0603 25.9367 20.3663 25.302C20.6836 24.6673 21.1256 24.18 21.6923 23.84C22.2703 23.4887 22.9503 23.313 23.7323 23.313C24.503 23.313 25.166 23.5057 25.7213 23.891C26.288 24.2763 26.662 24.809 26.8433 25.489L26.6733 25.319L26.8263 23.466H28.1693C28.124 23.7947 28.09 24.129 28.0673 24.469C28.0446 24.7977 28.0333 25.1207 28.0333 25.438V31.949C28.0333 33.2183 27.7046 34.176 27.0473 34.822C26.4013 35.468 25.4493 35.791 24.1913 35.791ZM23.9873 30.691C24.8146 30.691 25.4663 30.419 25.9423 29.875C26.4183 29.3197 26.6563 28.5433 26.6563 27.546C26.6563 26.5487 26.4183 25.778 25.9423 25.234C25.4663 24.69 24.8146 24.418 23.9873 24.418C23.1713 24.418 22.5196 24.69 22.0323 25.234C21.545 25.778 21.3013 26.5487 21.3013 27.546C21.3013 28.5433 21.545 29.3197 22.0323 29.875C22.5196 30.419 23.1713 30.691 23.9873 30.691ZM34.1795 32.153C33.3635 32.153 32.6495 31.9773 32.0375 31.626C31.4368 31.2633 30.9721 30.7533 30.6435 30.096C30.3148 29.4273 30.1505 28.6397 30.1505 27.733C30.1505 26.815 30.3148 26.0273 30.6435 25.37C30.9721 24.7127 31.4368 24.2083 32.0375 23.857C32.6495 23.4943 33.3635 23.313 34.1795 23.313C35.0068 23.313 35.7208 23.4943 36.3215 23.857C36.9335 24.2083 37.4038 24.7127 37.7325 25.37C38.0725 26.0273 38.2425 26.815 38.2425 27.733C38.2425 28.6397 38.0725 29.4273 37.7325 30.096C37.4038 30.7533 36.9335 31.2633 36.3215 31.626C35.7208 31.9773 35.0068 32.153 34.1795 32.153ZM34.1795 31.031C34.9955 31.031 35.6415 30.7533 36.1175 30.198C36.5935 29.6313 36.8315 28.8097 36.8315 27.733C36.8315 26.645 36.5878 25.8233 36.1005 25.268C35.6245 24.7013 34.9841 24.418 34.1795 24.418C33.3748 24.418 32.7345 24.7013 32.2585 25.268C31.7825 25.8233 31.5445 26.645 31.5445 27.733C31.5445 28.8097 31.7825 29.6313 32.2585 30.198C32.7345 30.7533 33.3748 31.031 34.1795 31.031ZM43.3984 32.153C42.3897 32.153 41.6247 31.8753 41.1034 31.32C40.5934 30.7647 40.3384 29.9147 40.3384 28.77V23.466H41.7154V28.736C41.7154 29.518 41.8741 30.096 42.1914 30.47C42.5087 30.8327 43.0017 31.014 43.6704 31.014C44.4184 31.014 45.0191 30.7703 45.4724 30.283C45.9257 29.7957 46.1524 29.144 46.1524 28.328V23.466H47.5294V32H46.1864V30.079H46.4074C46.1694 30.7363 45.7841 31.2463 45.2514 31.609C44.7301 31.9717 44.1124 32.153 43.3984 32.153ZM53.2269 32.153C52.3882 32.153 51.7479 31.915 51.3059 31.439C50.8639 30.9517 50.6429 30.2207 50.6429 29.246V24.537H48.9769V23.466H50.6429V21.137L52.0199 20.746V23.466H54.4679V24.537H52.0199V29.093C52.0199 29.773 52.1332 30.2603 52.3599 30.555C52.5979 30.8383 52.9492 30.98 53.4139 30.98C53.6292 30.98 53.8219 30.963 53.9919 30.929C54.1619 30.8837 54.3149 30.8327 54.4509 30.776V31.932C54.2922 32 54.0996 32.051 53.8729 32.085C53.6576 32.1303 53.4422 32.153 53.2269 32.153Z" fill="black"/>
<defs>
<clipPath id="clip0_7165_2">
<rect width="20.147" height="20.147" fill="white" transform="translate(36.2421 20.1467) rotate(179.729)"/>
</clipPath>
</defs>
</svg>
